<svg width="175" height="50" viewBox="0 0 175 50" fill="none" xmlns="http://www.w3.org/2000/svg">
<path d="M167.217 34.9147C167.217 32.7825 168.977 31.0768 171.109 31.0768C173.241 31.0768 174.947 32.8358 174.947 34.968C174.947 37.1002 173.188 38.806 171.055 38.806C168.977 38.806 167.271 37.1002 167.217 34.9147ZM174.147 34.9147C174.094 33.209 172.708 31.8763 171.002 31.9296C169.296 31.9829 167.964 33.3689 168.017 35.0746C168.07 36.7271 169.403 38.0597 171.055 38.0597C172.708 38.113 174.094 36.7804 174.147 35.1279C174.2 35.0746 174.2 34.968 174.147 34.9147ZM169.776 33.1024H171.269C171.855 32.9957 172.388 33.4222 172.495 34.0085C172.495 34.0618 172.495 34.1685 172.495 34.2218C172.495 34.6482 172.228 35.0213 171.855 35.2345L172.708 36.7271H171.908L171.162 35.3945H170.522V36.7271H169.776V33.1024ZM170.522 33.6887V34.8081H171.109C171.375 34.8614 171.695 34.6482 171.695 34.3817C171.695 34.3284 171.695 34.3284 171.695 34.2751C171.695 33.9019 171.482 33.742 171.109 33.742L170.522 33.6887Z" fill="#AD1AAD"/>
<path d="M0 19.8827C0 9.06184 8.6887 0.639664 19.8294 0.639664C25.9062 0.639664 31.9296 3.35821 35.3945 7.62261L30.1706 12.7932C27.7186 9.59489 23.8806 7.72922 19.8294 7.72922C13.113 7.72922 7.94243 12.9531 7.94243 19.8827C7.94243 26.7058 13.1663 31.9296 20.096 31.9296C23.9872 31.9296 27.6652 30.2239 30.1173 27.1855L35.1812 32.1962C31.6098 36.4073 25.7463 39.0725 19.8294 39.0725C8.6354 39.0725 0 30.7036 0 19.8827Z" fill="#AD1AAD"/>
<path d="M37.9531 30.4904C37.9531 25.2132 42.1642 22.0682 49.2537 22.0682C51.5991 22.0682 53.8913 22.4414 56.0768 23.1876V21.162C56.0768 17.9638 54.1045 16.3113 50.2132 16.3113C47.8678 16.3113 45.2559 17.0043 41.7377 18.6034L39.0725 13.2196C43.4435 11.194 47.3881 10.2345 51.4392 10.2345C58.9552 10.2345 63.2729 13.9659 63.2729 20.5224V38.5394H56.0768V36.5672C53.7847 38.2729 50.9595 39.1258 48.081 39.0192C42.0576 39.0192 37.9531 35.5544 37.9531 30.4904ZM49.9467 33.7953C52.1322 33.9019 54.2644 33.2623 56.0768 31.9829V27.9318C54.2111 27.1855 52.2388 26.8124 50.2132 26.8657C46.855 26.8657 44.8827 28.1983 44.8827 30.3305C44.8827 32.4627 46.855 33.7953 49.9467 33.7953Z" fill="#AD1AAD"/>
<path d="M68.8166 1.22601L76.1194 0V38.5394H68.8166V1.22601Z" fill="#AD1AAD"/>
<path d="M80.5437 24.6802C80.4904 16.791 86.8337 10.2878 94.7228 10.2345H95.096C99.467 10.1812 103.625 11.9936 106.61 15.1919L102.132 19.936C100.107 17.6972 97.8678 16.5778 95.2559 16.5778C91.0448 16.5778 87.7932 20.096 87.7932 24.6802C87.7932 29.2644 91.0981 32.6759 95.4158 32.6759C97.9211 32.6759 100.053 31.7164 102.026 29.5842L106.397 34.1684C103.465 37.3134 99.3603 39.0725 95.096 39.0725C86.887 39.0725 80.5437 32.7825 80.5437 24.6802Z" fill="#AD1AAD"/>
<path d="M108.102 24.6802C107.996 16.8443 114.286 10.3945 122.122 10.2878H122.388C130.277 10.2878 136.141 16.6844 136.141 25.2132V27.1322H115.565C116.525 30.6503 119.723 33.049 123.348 32.9424C125.8 32.9424 128.038 32.1429 129.478 30.7036L134.275 35.0746C131.13 37.7399 127.132 39.1791 122.974 39.0725C114.606 39.0725 108.102 32.7825 108.102 24.6802ZM128.945 21.9083C128.145 18.6034 125.48 16.3113 122.228 16.3113C118.87 16.3113 116.258 18.4968 115.458 21.9083H128.945Z" fill="#AD1AAD"/>
<path d="M139.232 49.7335V43.4435C140.085 43.6034 140.938 43.6567 141.791 43.6567C144.403 43.6567 146.269 42.3774 147.335 39.8721L147.761 38.806L136.94 10.7676H144.989L151.919 29.6908L159.755 10.7676H167.644L154.851 40.7249C151.919 47.4947 148.561 50 142.537 50C141.418 50 140.298 49.9467 139.232 49.7335Z" fill="#AD1AAD"/>
</svg>
