<svg width="398" height="50" viewBox="0 0 398 50" fill="none" xmlns="http://www.w3.org/2000/svg">
<g clip-path="url(#clip0_1_96)">
<path d="M111.34 17.5996C108.985 15.3069 105.887 14.1296 102.108 14.1296C97.8322 14.1296 94.4863 15.8026 92.1316 19.0866V2.85239H85.4396V46.2264H92.1316V30.178C92.1316 27.0179 92.875 24.5394 94.3621 22.6805C95.8495 20.8216 97.9561 19.8922 100.62 19.8922C103.099 19.8922 104.958 20.6977 106.259 22.2468C107.56 23.8578 108.242 26.1504 108.242 29.1247V46.2264H114.934V28.7527C114.934 23.6719 113.695 19.9541 111.34 17.5996Z" fill="#F6F3F0"/>
<path d="M148.841 14.5014H142.149V30.2398C142.149 33.5239 141.405 36.1264 139.98 37.9854C138.493 39.8442 136.51 40.7736 133.97 40.7736C131.491 40.7736 129.694 39.9681 128.455 38.3571C127.216 36.7462 126.596 34.3915 126.596 31.2934V14.5014H119.904V31.975C119.904 37.1179 121.02 40.8357 123.374 43.1283C125.667 45.4827 128.703 46.5981 132.421 46.5981C136.51 46.5981 139.795 45.1731 142.211 42.1989L142.955 46.2264H148.841V14.5014Z" fill="#F6F3F0"/>
<path d="M160.145 35.7547H153.701C153.763 39.1626 155.126 41.8269 157.728 43.7478C160.331 45.6687 163.801 46.5981 168.076 46.5981C170.555 46.5981 172.847 46.2264 174.892 45.4209C176.875 44.6154 178.486 43.4382 179.663 41.9508C180.779 40.4637 181.398 38.667 181.398 36.6841C181.398 34.4536 180.841 32.7184 179.725 31.4173C178.61 30.1159 177.123 29.1865 175.264 28.567C173.405 27.9473 171.112 27.5137 168.386 27.2038C166.341 26.9559 164.854 26.7701 163.987 26.5841C163.057 26.3983 162.314 26.0885 161.694 25.5927C161.074 25.0971 160.827 24.4155 160.827 23.4241C160.827 22.1848 161.384 21.1314 162.623 20.3879C163.801 19.6443 165.35 19.2726 167.333 19.2726C169.254 19.2726 170.865 19.7682 172.166 20.6977C173.405 21.6271 174.149 22.8044 174.334 24.2296H180.841C180.593 21.0075 179.229 18.529 176.751 16.7321C174.273 14.9971 170.988 14.0677 167.023 14.0677C164.544 14.0677 162.376 14.5014 160.455 15.3069C158.534 16.1744 157.047 17.3517 155.932 18.8388C154.816 20.3259 154.32 22.0609 154.32 23.9817C154.32 26.0885 154.816 27.6995 155.932 28.9387C157.047 30.178 158.472 31.0456 160.269 31.603C162.066 32.1607 164.358 32.5945 167.147 32.9044C169.13 33.1522 170.617 33.4 171.608 33.6478C172.599 33.8959 173.343 34.2676 173.963 34.7632C174.52 35.3209 174.83 36.1264 174.83 37.1799C174.83 38.481 174.149 39.5343 172.909 40.278C171.67 41.0214 169.997 41.3934 168.014 41.3934C165.722 41.3934 163.863 40.8975 162.438 39.8442C161.012 38.7909 160.269 37.4277 160.145 35.7547Z" fill="#F6F3F0"/>
<path d="M188.251 20.3879V37.6135C188.251 40.5876 188.933 42.7566 190.296 44.1198C191.659 45.5448 193.89 46.2264 196.926 46.2264H203.37V40.3398H198.289C197.05 40.3398 196.245 40.092 195.749 39.5964C195.253 39.1006 195.006 38.1712 195.006 36.9319V20.3879H202.627V14.5014H195.006V5.64072H188.251V14.5014H182.737V20.3879H188.251Z" fill="#F6F3F0"/>
<path d="M208.201 2.85239V46.2264H214.893V2.85239H208.201Z" fill="#F6F3F0"/>
<path d="M221.577 21.875C220.276 24.3535 219.656 27.2038 219.656 30.4258C219.656 33.6478 220.276 36.4984 221.639 38.9148C223.002 41.3934 224.861 43.2522 227.339 44.6154C229.818 45.9786 232.668 46.5981 236.014 46.5981C239.794 46.5981 242.954 45.6069 245.494 43.5C248.035 41.4552 249.584 38.7909 250.204 35.5687H243.512C243.016 37.3657 242.087 38.7288 240.723 39.7203C239.298 40.7118 237.563 41.1453 235.518 41.1453C232.916 41.1453 230.809 40.3398 229.26 38.7288C227.649 37.1179 226.782 34.9492 226.658 32.1607V31.789H250.575C250.699 30.9214 250.761 30.1159 250.761 29.2486C250.699 26.2124 250.018 23.548 248.655 21.2554C247.291 19.0247 245.495 17.2278 243.14 15.9885C240.785 14.7493 238.121 14.1296 235.085 14.1296C232.049 14.1296 229.384 14.8112 227.029 16.1744C224.675 17.5376 222.878 19.3965 221.577 21.875ZM243.945 26.894H226.905C227.154 24.6633 228.021 22.9284 229.632 21.5652C231.243 20.202 233.102 19.5204 235.332 19.5204C237.687 19.5204 239.608 20.202 241.157 21.5032C242.706 22.8044 243.635 24.6013 243.945 26.894Z" fill="#F6F3F0"/>
<path d="M268.878 14.5015H263.364V20.3879H268.878V46.2261H275.632V20.3879H284.121V14.5015H275.632V11.8372C275.632 10.7838 275.819 9.97832 276.313 9.48264C276.81 8.98692 277.552 8.73909 278.668 8.73909H284.184V2.85269H277.739C274.703 2.85269 272.472 3.59624 271.047 5.02137C269.56 6.44648 268.878 8.55319 268.878 11.3415V14.5015Z" fill="#F6F3F0"/>
<path d="M317.766 14.5015H311.074V30.2398C311.074 33.5239 310.332 36.1264 308.907 37.9852C307.42 39.844 305.437 40.7734 302.896 40.7734C300.418 40.7734 298.621 39.9679 297.382 38.3569C296.143 36.7459 295.522 34.3912 295.522 31.2931V14.5015H288.83V31.9747C288.83 37.1176 289.945 40.8354 292.299 43.128C294.593 45.4824 297.629 46.5978 301.346 46.5978C305.437 46.5978 308.72 45.1728 311.137 42.1986L311.879 46.2261H317.766V14.5015Z" fill="#F6F3F0"/>
<path d="M349.643 17.5996C347.288 15.3071 344.19 14.1298 340.473 14.1298C336.071 14.1298 332.665 15.6788 330.31 18.653L329.566 14.5015H323.742V46.2261H330.434V30.2398C330.434 27.0179 331.179 24.5394 332.665 22.6805C334.151 20.8217 336.258 19.8922 338.923 19.8922C341.401 19.8922 343.261 20.6977 344.56 22.2468C345.799 23.8578 346.481 26.1504 346.481 29.1244V46.2261H353.236V28.7527C353.236 23.6719 351.997 19.9542 349.643 17.5996Z" fill="#F6F3F0"/>
<path d="M390.115 2.85269H383.426V18.9009C382.31 17.4138 380.945 16.2984 379.212 15.431C377.475 14.5635 375.431 14.1298 373.14 14.1298C370.288 14.1298 367.687 14.8113 365.456 16.1745C363.162 17.5377 361.365 19.3965 360.066 21.875C358.764 24.3535 358.146 27.1418 358.146 30.3637C358.146 33.7099 358.764 36.5599 360.066 39.0385C361.305 41.517 363.102 43.3758 365.393 44.6769C367.624 45.9783 370.228 46.5978 373.14 46.5978C377.475 46.5978 380.945 44.925 383.486 41.4549L384.291 46.2261H390.115V2.85269ZM380.945 38.047C379.212 40.0299 376.981 40.9593 374.256 40.9593C371.467 40.9593 369.236 40.0299 367.563 38.047C365.827 36.0643 365.022 33.5239 365.022 30.3637C365.022 27.2657 365.827 24.7872 367.563 22.8045C369.236 20.8217 371.467 19.8303 374.256 19.8303C376.981 19.8303 379.212 20.8217 380.945 22.8045C382.618 24.7872 383.486 27.3277 383.486 30.4876C383.486 33.5857 382.618 36.1264 380.945 38.047Z" fill="#F6F3F0"/>
<path fill-rule="evenodd" clip-rule="evenodd" d="M29.3632 27.2758L10.6974 45.9415C10.3855 46.2533 9.96255 46.4286 9.52151 46.4286C9.08047 46.4286 8.65747 46.2533 8.3456 45.9415L0.487074 38.083C0.175206 37.7712 -5.68717e-08 37.3481 0 36.9071C5.68717e-08 36.4659 0.175208 36.0431 0.487077 35.731L10.4544 25.7638C10.7663 25.452 10.9415 25.029 10.9415 24.5879C10.9415 24.1469 10.7663 23.7239 10.4544 23.412L0.48708 13.4447C0.175211 13.1328 3.12014e-06 12.7098 3.17701e-06 12.2688C3.23387e-06 11.8277 0.175211 11.4047 0.48708 11.0929L8.3456 3.23434C8.65747 2.92245 9.08047 2.74725 9.52151 2.74725C9.96255 2.74725 10.3855 2.92247 10.6974 3.23434L29.3632 21.9C30.0758 22.613 30.4761 23.5798 30.4761 24.5879C30.4761 25.596 30.0758 26.5628 29.3632 27.2758Z" fill="#ADA1ED"/>
<path fill-rule="evenodd" clip-rule="evenodd" d="M42.5706 27.2758L23.9049 45.9415C23.5931 46.2533 23.1701 46.4286 22.729 46.4286C22.288 46.4286 21.865 46.2533 21.5531 45.9415L13.6946 38.083C13.3827 37.7712 13.2075 37.3481 13.2075 36.9071C13.2075 36.4659 13.3827 36.0431 13.6946 35.731L23.6619 25.7638C23.9738 25.452 24.149 25.029 24.149 24.5879C24.149 24.1469 23.9738 23.7239 23.6619 23.412L13.6946 13.4447C13.3827 13.1328 13.2075 12.7098 13.2075 12.2688C13.2075 11.8277 13.3827 11.4047 13.6946 11.0929L21.5531 3.23434C21.865 2.92245 22.288 2.74725 22.729 2.74725C23.1701 2.74725 23.5931 2.92247 23.9049 3.23434L42.5706 21.9C43.2832 22.613 43.6835 23.5798 43.6835 24.5879C43.6835 25.596 43.2832 26.5628 42.5706 27.2758Z" fill="#D75856"/>
<path fill-rule="evenodd" clip-rule="evenodd" d="M55.7783 27.2758L37.1124 45.9415C36.8005 46.2533 36.3775 46.4286 35.9365 46.4286C35.4956 46.4286 35.0725 46.2533 34.7607 45.9415L26.9021 38.083C26.5902 37.7712 26.415 37.3481 26.415 36.9071C26.415 36.4659 26.5902 36.0431 26.9021 35.731L36.8695 25.7638C37.1813 25.452 37.3566 25.029 37.3566 24.5879C37.3566 24.1469 37.1813 23.7239 36.8695 23.412L26.9021 13.4447C26.5902 13.1328 26.415 12.7098 26.415 12.2688C26.415 11.8277 26.5902 11.4047 26.9021 11.0929L34.7607 3.23434C35.0725 2.92245 35.4956 2.74725 35.9365 2.74725C36.3775 2.74725 36.8005 2.92247 37.1124 3.23434L55.7783 21.9C56.4909 22.613 56.8912 23.5798 56.8912 24.5879C56.8912 25.596 56.4909 26.5628 55.7783 27.2758Z" fill="#E88149"/>
<path fill-rule="evenodd" clip-rule="evenodd" d="M68.9857 27.2758L50.3201 45.9415C50.008 46.2533 49.5852 46.4286 49.144 46.4286C48.703 46.4286 48.2799 46.2533 47.9681 45.9415L40.1096 38.083C39.7978 37.7712 39.6225 37.3481 39.6225 36.9071C39.6225 36.4659 39.7978 36.0431 40.1096 35.731L50.0769 25.7638C50.3887 25.452 50.564 25.029 50.564 24.5879C50.564 24.1469 50.3887 23.7239 50.0769 23.412L40.1096 13.4447C39.7978 13.1328 39.6225 12.7098 39.6225 12.2688C39.6225 11.8277 39.7978 11.4047 40.1096 11.0929L47.9681 3.23434C48.2799 2.92245 48.703 2.74725 49.144 2.74725C49.5852 2.74725 50.0082 2.92247 50.3201 3.23434L68.9857 21.9C69.6984 22.613 70.0986 23.5798 70.0986 24.5879C70.0986 25.596 69.6984 26.5628 68.9857 27.2758Z" fill="#F4CA66"/>
</g>
<defs>
<clipPath id="clip0_1_96">
<rect width="397.802" height="50" fill="white"/>
</clipPath>
</defs>
</svg>
