<svg width="77" height="50" viewBox="0 0 77 50" fill="none" xmlns="http://www.w3.org/2000/svg">
<g clip-path="url(#clip0_1_73)">
<path d="M14.5531 19.4203C15.682 19.2684 16.7468 18.8068 17.6293 18.0867C18.5037 17.3731 19.1588 16.4271 19.5193 15.3575C19.894 14.3086 20.1333 13.2162 20.2315 12.1067C20.3305 10.9039 20.4469 9.6527 20.5792 8.33724C20.7036 7.01565 20.9081 5.70282 21.1916 4.40601C21.5003 3.05429 22.0208 1.7599 22.7339 0.57079C22.8035 0.42972 22.9056 0.30717 23.0317 0.213199C23.2062 0.0642276 23.4317 -0.0113675 23.6607 0.00227283C23.9607 0.00515356 24.2596 0.0385905 24.5528 0.102066C24.8469 0.177299 25.1348 0.275114 25.4139 0.39464C25.648 0.504301 25.8654 0.646585 26.0595 0.817248C26.1319 0.877838 26.1913 0.952406 26.2342 1.03649C26.2774 1.11987 26.3031 1.2112 26.3098 1.30487C26.3072 1.41111 26.2727 1.51412 26.2107 1.60047C26.1485 1.68754 26.062 1.75433 25.962 1.7925C25.4845 2.49826 25.1103 3.26859 24.8507 4.08017C24.5794 4.93755 24.3637 5.81155 24.2051 6.69671C24.0538 7.60392 23.9072 8.53305 23.7915 9.49393C23.6758 10.4548 23.5435 11.3953 23.3939 12.3214C23.2442 13.2475 23.0295 14.1736 22.7974 15.068C22.5558 15.9373 22.2172 16.7767 21.7881 17.5704C21.3527 18.3584 20.7937 19.0716 20.1324 19.6826C19.4105 20.3709 18.5688 20.9215 17.649 21.3073C18.6373 21.8125 19.524 22.4955 20.2647 23.322C20.9455 24.1025 21.5342 24.9586 22.0194 25.8736C22.5047 26.8033 22.9143 27.7705 23.2442 28.7661C23.5919 29.7738 23.9397 30.7808 24.3026 31.7561C24.6445 32.7292 25.0369 33.6838 25.4782 34.616C25.9068 35.5255 26.4644 36.3683 27.1338 37.1184C27.198 37.189 27.277 37.2445 27.3652 37.281L27.6471 37.3785L27.8785 37.5085C27.911 37.5328 27.9369 37.5647 27.9541 37.6015C27.9713 37.6383 27.9789 37.6789 27.976 37.7194C27.9492 37.9953 27.819 38.2508 27.6116 38.4346C27.3429 38.717 27.0428 38.9679 26.7173 39.1823C26.4028 39.4134 26.0641 39.6096 25.7072 39.7675C25.4734 39.9013 25.214 39.9843 24.9459 40.0109C24.8332 40.0074 24.7222 39.9817 24.6193 39.9353C24.5174 39.8881 24.4259 39.821 24.3502 39.738C23.7274 38.9932 23.1732 38.1936 22.6945 37.349C22.2857 36.535 21.9208 35.6997 21.6014 34.8466C21.2869 34.0014 21.0223 33.2212 20.7735 32.3276C20.5248 31.434 20.3101 30.7029 20.078 29.9084C19.8528 29.1559 19.5819 28.418 19.2668 27.6986C18.9828 27.0136 18.6099 26.369 18.1578 25.7813C17.2268 24.5143 15.8812 23.6137 14.355 23.2359V33.1509C14.3691 33.3027 14.3411 33.4554 14.2742 33.5924C14.2059 33.7306 14.1014 33.8477 13.9717 33.9311C13.7055 34.0857 13.4019 34.1642 13.094 34.1579C12.8305 34.1586 12.5683 34.1201 12.3161 34.0437C12.0682 33.9817 11.829 33.889 11.6039 33.7678C11.4114 33.6691 11.2378 33.537 11.0914 33.3777C11.0235 33.3157 10.9692 33.2402 10.9318 33.1562C10.8948 33.0724 10.8758 32.9817 10.8759 32.8901V5.64057C9.88659 5.76263 8.92444 6.04826 8.02878 6.48578C7.13889 6.90538 6.34438 7.50281 5.69423 8.24123C4.9996 9.02966 4.46523 9.94587 4.12098 10.9387C3.71803 12.1147 3.52209 13.3517 3.54188 14.5947C3.53383 15.3997 3.62833 16.2025 3.82312 16.9837C3.98235 17.6083 4.21055 18.2133 4.50352 18.7875C4.71824 19.2003 4.97923 19.5874 5.28145 19.9412C5.54606 20.2013 5.76152 20.3472 5.89382 20.3472C6.02609 20.3475 6.15625 20.314 6.27182 20.2496C6.38124 20.1999 6.49945 20.1724 6.61958 20.1687C6.85143 20.1687 6.96735 20.3474 6.96735 20.7048C6.96973 21.1624 6.86186 21.6138 6.65285 22.021C6.45922 22.4119 6.18902 22.76 5.85829 23.0446C5.55744 23.305 5.19168 23.4789 4.79988 23.5481C4.61991 23.5878 4.43348 23.5881 4.25339 23.549C4.0733 23.5098 3.90382 23.4321 3.75659 23.3213C3.28169 22.9893 2.85787 22.5897 2.49859 22.1351C2.01585 21.5498 1.60939 20.9056 1.28898 20.2179C0.891905 19.4076 0.582213 18.5573 0.365144 17.6815C0.119334 16.6708 -0.00302376 15.6341 0.000748673 14.594C-0.0157715 13.1912 0.180501 11.7941 0.582874 10.4503C0.908639 9.29329 1.4173 8.19583 2.08959 7.19945C2.70756 6.31144 3.45555 5.5214 4.30847 4.85583C5.12992 4.21397 6.02353 3.67025 6.97113 3.23571C7.87869 2.84095 8.8287 2.55201 9.80237 2.37462C10.7081 2.19926 11.6279 2.1069 12.5505 2.09868C12.785 2.09931 13.0167 2.14901 13.2309 2.24459C13.4497 2.33192 13.6474 2.46491 13.8107 2.63469C13.968 2.80763 14.0958 3.00533 14.1887 3.21984C14.2939 3.44943 14.3503 3.69837 14.3543 3.95089L14.5531 19.4203Z" fill="#007D7B"/>
<path d="M37.6 20.0848C37.5909 20.9366 37.4457 21.7813 37.1698 22.5872C36.8769 23.4581 36.4524 24.2791 35.9111 25.0215C35.3256 25.8075 34.622 26.4981 33.8253 27.0688C32.9701 27.7023 32.0043 28.1708 30.9774 28.45C31.1309 28.8276 31.3251 29.1873 31.5565 29.5228C31.8006 29.8513 32.0906 30.143 32.4176 30.3892C32.7759 30.6454 33.1727 30.8429 33.5932 30.9743C34.0922 31.1253 34.6119 31.1964 35.1331 31.1853C35.9118 31.2049 36.6838 31.0377 37.3845 30.6976C38.0201 30.3973 38.5845 29.9651 39.0402 29.4298C39.4759 28.89 39.8276 28.2875 40.0835 27.6426C40.3392 27.0018 40.5331 26.3381 40.6626 25.6604C40.6854 25.4612 40.754 25.27 40.8629 25.1017C40.9726 24.9323 41.1195 24.7901 41.2923 24.6859C41.4366 24.6037 41.5959 24.5513 41.7608 24.5317C41.9257 24.5121 42.0929 24.5257 42.2525 24.5717C42.5824 24.6593 42.8773 24.8465 43.0969 25.1077C43.2173 25.241 43.3066 25.3992 43.3585 25.5712C43.4103 25.7426 43.4229 25.9234 43.3955 26.1004C43.3334 26.616 43.2336 27.1264 43.0969 27.6275C42.9571 28.2278 42.7518 28.8109 42.4846 29.3663C42.1903 29.9744 41.8357 30.5513 41.4261 31.0885C40.9593 31.6783 40.4002 32.1889 39.7705 32.6005C39.0934 33.0642 38.3516 33.4254 37.569 33.6725C36.6308 33.9599 35.653 34.0969 34.672 34.0785C33.6554 34.0791 32.6485 33.8803 31.7084 33.4934C30.7709 33.1128 29.912 32.562 29.1751 31.8687C28.4165 31.0796 27.8153 30.1531 27.4037 29.1388C26.9504 27.9681 26.7256 26.7214 26.7415 25.4661C26.7299 24.1531 26.9311 22.847 27.3372 21.5983C27.6929 20.4929 28.212 19.4468 28.8772 18.4949C29.4668 17.6825 30.2089 16.9925 31.0621 16.4636C31.8133 15.9811 32.686 15.7218 33.5788 15.7159C34.1468 15.7131 34.7097 15.8236 35.2345 16.0409C35.7211 16.2455 36.1564 16.5553 36.5091 16.9482C36.8651 17.3557 37.1354 17.8309 37.3036 18.3453C37.4916 18.9063 37.5915 19.4932 37.6 20.0848ZM30.3975 25.268C30.3893 25.3979 30.3893 25.5282 30.3975 25.6581C30.4061 25.7933 30.4061 25.9289 30.3975 26.0641C31.493 25.5494 32.418 24.7316 33.0632 23.7076C33.724 22.6322 34.0736 21.3946 34.0732 20.1325C34.0956 19.7389 34.0098 19.3467 33.8253 18.9984C33.7595 18.8726 33.6597 18.7678 33.5372 18.696C33.4137 18.624 33.2727 18.5876 33.1297 18.591C32.7715 18.5873 32.4242 18.7144 32.153 18.9485C31.8511 19.2184 31.6039 19.5439 31.4249 19.9072C31.1938 20.3277 31.016 20.7754 30.8957 21.24C30.76 21.7269 30.6495 22.2205 30.5646 22.7187C30.4744 23.1911 30.4136 23.6685 30.3824 24.1484C30.3636 24.5215 30.3687 24.8955 30.3975 25.268Z" fill="#007D7B"/>
<path d="M50.8596 20.0841C50.8559 20.9349 50.7163 21.7797 50.446 22.5864C50.1473 23.4583 49.7173 24.2795 49.1707 25.0215C48.5862 25.8039 47.8886 26.4949 47.1007 27.0718C46.244 27.7023 45.279 28.1704 44.2536 28.4531C44.4007 28.8336 44.5953 29.194 44.8327 29.5258C45.0727 29.8569 45.3633 30.1483 45.6938 30.3892C46.0482 30.642 46.439 30.8393 46.8528 30.9743C47.3518 31.1252 47.8715 31.1964 48.3927 31.1853C49.1331 31.1985 49.8672 31.048 50.5426 30.7445C51.218 30.4411 51.818 29.9921 52.2998 29.4298C52.7353 28.8928 53.0819 28.2894 53.3264 27.6426C53.5876 27.0023 53.787 26.3385 53.9222 25.6604C53.9453 25.4631 54.0122 25.2735 54.118 25.1055C54.2245 24.9364 54.367 24.7929 54.5353 24.6851C54.8262 24.5208 55.1704 24.4787 55.4924 24.5679C55.8283 24.6524 56.1294 24.8398 56.3535 25.1039C56.4677 25.241 56.553 25.3996 56.6045 25.5704C56.6556 25.7406 56.6715 25.9193 56.6513 26.0958C56.6054 26.6139 56.5053 27.1257 56.3527 27.623C56.207 28.2237 55.9961 28.8068 55.7237 29.3618C55.4357 29.9732 55.0807 30.5508 54.6653 31.084C54.2247 31.6682 53.6939 32.1786 53.0928 32.596C52.4155 33.0597 51.6734 33.421 50.8906 33.668C49.9467 33.9554 48.9634 34.0924 47.9769 34.074C46.9652 34.0748 45.9632 33.876 45.0285 33.4888C44.087 33.1161 43.2266 32.5644 42.4951 31.8642C41.7314 31.0792 41.1295 30.1516 40.7238 29.1342C40.2647 27.9652 40.0396 26.7173 40.0615 25.4615C40.0527 24.1501 40.248 22.8452 40.6406 21.5938C40.9962 20.4853 41.521 19.4385 42.1965 18.4904C42.7864 17.6779 43.5287 16.988 44.3821 16.459C45.1282 15.9787 45.995 15.7195 46.8822 15.7113C47.4499 15.7125 48.012 15.8228 48.5379 16.0364C49.0245 16.241 49.4598 16.5508 49.8125 16.9436C50.1686 17.3512 50.4388 17.8263 50.6071 18.3407C50.7806 18.9053 50.8658 19.4934 50.8596 20.0841ZM43.6579 25.268C43.6497 25.3979 43.6497 25.5282 43.6579 25.6581V26.0641C44.206 25.8093 44.7136 25.4754 45.1646 25.073C45.8599 24.4547 46.4124 23.6927 46.7841 22.8398C47.1557 21.9869 47.3375 21.0634 47.3169 20.1332C47.3393 19.7397 47.2536 19.3475 47.069 18.9992C47.0043 18.8762 46.907 18.7734 46.7877 18.7021C46.6675 18.6304 46.53 18.5928 46.3901 18.5932C46.0316 18.588 45.6837 18.7154 45.4133 18.9508C45.1109 19.2243 44.8589 19.5488 44.6686 19.9094C44.4446 20.3333 44.2671 20.7802 44.1394 21.2423C44.0038 21.7292 43.8932 22.2227 43.8083 22.721C43.7233 23.1936 43.668 23.6711 43.6427 24.1506C43.6201 24.524 43.6201 24.8984 43.6427 25.2718L43.6579 25.268Z" fill="#007D7B"/>
<path d="M59.4024 34.5306C58.9409 34.5461 58.4802 34.4801 58.0416 34.3355C57.7383 34.2437 57.4606 34.0824 57.2304 33.8646V48.1319C57.2403 48.4717 57.1605 48.808 56.9991 49.1072C56.8433 49.3417 56.6401 49.541 56.4026 49.6923C56.1623 49.8344 55.899 49.9335 55.6247 49.9849C55.3769 50.0062 55.1278 50.0062 54.88 49.9849C54.4332 49.9849 54.1346 49.8715 54.0189 49.6439C53.8985 49.3838 53.8418 49.0987 53.8533 48.8123V18.1835C53.858 17.9265 53.8303 17.67 53.7709 17.4199C53.7306 17.2705 53.6801 17.124 53.6197 16.9814L53.4685 16.738C53.4172 16.6732 53.3881 16.5937 53.3854 16.5112C53.3874 16.4698 53.4008 16.4298 53.4239 16.3955C53.4478 16.3623 53.4802 16.3362 53.5177 16.3199C53.6212 16.2457 53.74 16.1956 53.8654 16.1732C54.0211 16.122 54.1822 16.0893 54.3455 16.0757C55.1214 15.9604 55.9116 16.1528 56.5478 16.6117C56.7481 16.7711 56.9125 16.971 57.0301 17.1984C57.1468 17.4247 57.2136 17.6735 57.2259 17.9279C57.6728 17.2888 58.2341 16.738 58.8815 16.3033C59.5926 15.8875 60.4015 15.6683 61.2252 15.6683C62.0489 15.6683 62.8577 15.8875 63.5688 16.3033C64.2422 16.7052 64.8099 17.2622 65.2244 17.9279C65.6773 18.6875 66.0017 19.5167 66.1846 20.3819C66.403 21.3797 66.5085 22.3989 66.4991 23.4203C66.5091 24.6039 66.3982 25.7854 66.1679 26.9463C65.9962 27.9314 65.7173 28.8947 65.3363 29.8192C65.9588 29.7988 66.5762 29.7005 67.1742 29.5266C67.6159 29.3908 68.0268 29.1699 68.3838 28.8764C68.7214 28.5812 69.0118 28.236 69.2449 27.8528C69.4767 27.4496 69.7249 26.9947 69.9895 26.4882C70.1428 26.176 70.3142 25.8731 70.5029 25.581C70.5596 25.4972 70.6359 25.4284 70.7251 25.3807C70.8148 25.3326 70.9145 25.3067 71.0162 25.3051C71.2218 25.3112 71.4219 25.3728 71.5953 25.4835C71.7928 25.5956 71.9714 25.7383 72.1245 25.9061C72.2667 26.0758 72.3889 26.2612 72.4889 26.4587C72.5823 26.6166 72.6343 26.7955 72.6401 26.9788C72.5944 27.5546 72.4131 28.1113 72.1109 28.6035C71.6945 29.3208 71.1301 29.9411 70.4552 30.4232C69.6358 31.0604 68.7114 31.5498 67.7238 31.8695C66.4782 32.2987 65.1664 32.5035 63.8493 32.4743C63.2555 33.0988 62.543 33.5984 61.7536 33.9439C61.0191 34.3005 60.2184 34.5003 59.4024 34.5306ZM60.1804 18.5902C59.851 18.5892 59.5287 18.6852 59.2535 18.8661C58.9298 19.0696 58.644 19.328 58.409 19.6297C58.1287 19.9861 57.8996 20.38 57.7286 20.8C57.5238 21.2731 57.3577 21.7621 57.2319 22.2621V31.7682C57.627 31.2537 58.1791 30.8821 58.8044 30.7097C59.6635 30.4408 60.552 30.277 61.4505 30.2221C61.7291 29.7891 61.9573 29.3257 62.1309 28.8409C62.3331 28.3105 62.5008 27.7676 62.6328 27.2155C62.7601 26.6794 62.8595 26.1371 62.9307 25.5908C62.9926 25.1111 63.0259 24.6282 63.0305 24.1446C63.0412 23.2884 62.9637 22.4334 62.7992 21.5931C62.6808 21.0205 62.4682 20.4714 62.1702 19.9684C61.9557 19.5758 61.6431 19.2456 61.263 19.0098C60.9525 18.7801 60.5879 18.6345 60.2046 18.5872L60.1804 18.5902Z" fill="#007D7B"/>
<path d="M73.0778 22.6689C74.76 22.6689 76.1246 20.8061 76.1246 18.5108C76.1246 16.2156 74.7637 14.3528 73.0778 14.3528C71.392 14.3528 70.0319 16.2156 70.0319 18.5108C70.0319 20.8061 71.3957 22.6689 73.0778 22.6689Z" fill="#F29128"/>
<path d="M71.3897 14.3649H73.2797V22.6522H71.1909L71.3897 14.3649Z" fill="#F29128"/>
<path d="M71.1916 22.6689C72.8737 22.6689 74.2376 20.8061 74.2376 18.5108C74.2376 16.2156 72.8767 14.3528 71.1916 14.3528C69.5065 14.3528 68.1487 16.2118 68.1487 18.5086C68.1487 20.8053 69.5095 22.6689 71.1916 22.6689Z" fill="#FFC808"/>
</g>
<defs>
<clipPath id="clip0_1_73">
<rect width="76.1246" height="50" fill="white"/>
</clipPath>
</defs>
</svg>
