<svg width="96" height="50" viewBox="0 0 96 50" fill="none" xmlns="http://www.w3.org/2000/svg">
<g clip-path="url(#clip0_1_81)">
<path d="M30.782 31.8633C29.3638 32.6821 27.7267 33.0414 26.096 32.8918C24.4653 32.7422 22.9209 32.0911 21.6753 31.0281L39.3745 20.8092C38.3204 17.6562 36.1178 15.0157 33.2052 13.413C30.2925 11.8102 26.8832 11.3628 23.6557 12.1598C20.4281 12.9567 17.6188 14.9395 15.7869 17.7137C13.9549 20.4879 13.2346 23.8502 13.7691 27.1314C14.3037 30.4126 16.054 33.3724 18.6718 35.4217C21.2895 37.471 24.5828 38.4596 27.8965 38.1909C31.2101 37.9222 34.3011 36.4158 36.5544 33.9715C38.8078 31.5271 40.0583 28.3241 40.0572 24.9996H34.7431C34.7442 26.3908 34.3787 27.7578 33.6833 28.9628C32.9879 30.1678 31.9872 31.1682 30.782 31.8633ZM18.8943 25.0004C18.8943 23.4864 19.3281 22.004 20.1442 20.7287C20.9604 19.4534 22.1248 18.4386 23.4996 17.8044C24.8745 17.1702 26.4022 16.9431 27.9021 17.15C29.402 17.3569 30.8112 17.9892 31.963 18.9719L19.0257 26.4408C18.9373 25.9658 18.8933 25.4836 18.8943 25.0004Z" fill="#636BF6"/>
<path d="M54.2769 31.3676L46.4605 11.7642H39.7352L50.2884 38.2349H58.2882L68.6959 11.7642H61.9838L54.2769 31.3676Z" fill="#636BF6"/>
<path d="M5.88209 26.4707V0H8.27423e-07V26.4707C-0.000578768 28.0159 0.303345 29.546 0.8944 30.9736C1.48546 32.4012 2.35206 33.6983 3.44467 34.7909C4.53729 35.8834 5.83449 36.7499 7.26215 37.3409C8.68981 37.9318 10.2199 38.2356 11.7651 38.2349V32.3528C10.9925 32.3529 10.2276 32.2009 9.51382 31.9053C8.80007 31.6098 8.15153 31.1765 7.60523 30.6303C7.05894 30.0841 6.62559 29.4356 6.32993 28.7219C6.03427 28.0082 5.88209 27.2433 5.88209 26.4707Z" fill="#636BF6"/>
<path d="M89.3745 11.7651V26.4707C89.3555 28.0184 88.7274 29.4963 87.6263 30.584C86.5252 31.6717 85.0397 32.2817 83.4919 32.2817C81.9442 32.2817 80.4587 31.6717 79.3576 30.584C78.2565 29.4963 77.6284 28.0184 77.6094 26.4707V11.7651H71.7273V26.4707C71.7248 28.5367 72.267 30.5668 73.2993 32.3563C74.3316 34.1459 75.8175 35.6316 77.6072 36.6637C79.3968 37.6959 81.427 38.2379 83.4929 38.2352C85.5589 38.2324 87.5876 37.6851 89.3745 36.6482V38.2358C89.3745 39.7961 88.7547 41.2924 87.6514 42.3957C86.5481 43.499 85.0518 44.1188 83.4915 44.1188H71.7273V50.0009H83.4915C85.0366 50.0009 86.5665 49.6965 87.994 49.1052C89.4215 48.5139 90.7185 47.6472 91.811 46.5547C92.9035 45.4621 93.7701 44.165 94.3613 42.7375C94.9525 41.31 95.2567 39.78 95.2566 38.2349V11.7651H89.3745Z" fill="#636BF6"/>
</g>
<defs>
<clipPath id="clip0_1_81">
<rect width="95.2566" height="50" fill="white"/>
</clipPath>
</defs>
</svg>
